<svg width="814" height="814" viewBox="0 0 814 814" fill="none" xmlns="http://www.w3.org/2000/svg">
<rect x="439" y="439" width="375" height="375" rx="72" fill="#F6812F"/>
<path d="M517.767 595.9V588.133H510V595.9H517.767ZM548.833 564.833V557.067H541.067V564.833H548.833ZM610.967 533.767V526H603.2V533.767H610.967ZM642.033 533.767H649.8V526H642.033V533.767ZM704.167 626.967H696.4V634.733H704.167V626.967ZM525.533 626.967V595.9H510V626.967H525.533ZM556.6 626.967V564.833H541.067V626.967H556.6ZM548.833 572.6H642.033V557.067H548.833V572.6ZM634.267 564.833V626.967H649.8V564.833H634.267ZM587.667 626.967V564.833H572.133V626.967H587.667ZM618.733 626.967V533.767H603.2V626.967H618.733ZM610.967 541.533H642.033V526H610.967V541.533ZM634.267 533.767V564.833H649.8V533.767H634.267ZM723.366 665.8H743V650.267H723.366V665.8ZM665.333 588.133V595.9H680.867V588.133H665.333ZM696.4 611.433V626.967H711.933V611.433H696.4ZM704.167 634.733H719.7V619.2H704.167V634.733ZM727.467 642.5V658.033H743V642.5H727.467ZM719.7 634.733C721.76 634.733 723.735 635.552 725.192 637.008C726.648 638.465 727.467 640.44 727.467 642.5H743C743 636.32 740.545 630.394 736.176 626.024C731.806 621.655 725.88 619.2 719.7 619.2V634.733ZM688.633 603.667C690.693 603.667 692.669 604.485 694.125 605.941C695.582 607.398 696.4 609.373 696.4 611.433H711.933C711.933 605.254 709.479 599.327 705.109 594.958C700.739 590.588 694.813 588.133 688.633 588.133V603.667ZM556.6 665.8H572.133V650.267H556.6V665.8ZM642.033 619.2H517.767V634.733H642.033V619.2ZM510 626.967V642.5H525.533V626.967H510ZM595.433 727.933H603.635V712.4H595.433V727.933ZM603.635 727.933C622.472 727.933 641.044 723.505 657.854 715.005C674.665 706.506 689.241 694.173 700.408 679.003L687.903 669.792C678.179 683.001 665.486 693.74 650.848 701.141C636.21 708.542 620.038 712.399 603.635 712.4V727.933ZM510 642.5C510 665.158 519.001 686.889 535.023 702.911C551.045 718.932 572.775 727.933 595.433 727.933V712.4C576.895 712.4 559.115 705.036 546.007 691.927C532.898 678.818 525.533 661.039 525.533 642.5H510ZM517.767 603.667H688.633V588.133H517.767V603.667ZM665.333 595.9C665.333 602.08 662.879 608.006 658.509 612.376C654.139 616.745 648.213 619.2 642.033 619.2V634.733C652.333 634.733 662.21 630.642 669.493 623.359C676.775 616.077 680.867 606.199 680.867 595.9H665.333ZM723.366 650.267C708.454 650.267 695.887 658.934 687.903 669.792L700.423 679.003C706.372 670.895 714.745 665.8 723.366 665.8V650.267Z" fill="#EDEFF1"/>
<rect y="439" width="375" height="375" rx="72" fill="#F6812F"/>
<path fill-rule="evenodd" clip-rule="evenodd" d="M135.162 566.543C149.717 553.992 168.281 547.06 187.5 547C226.673 547 259.191 576.125 262.73 613.682C285.913 616.958 304 636.37 304 660.194C304 686.349 282.185 707.188 255.754 707.188H126.061C95.8727 707.188 71 683.392 71 653.568C71 627.895 89.4361 606.633 113.843 601.245C115.925 588.678 124.007 576.154 135.162 566.543ZM144.672 577.567C133.648 587.076 127.881 598.537 127.881 607.507V614.031L121.401 614.745C101.057 616.973 85.5625 633.676 85.5625 653.568C85.5625 674.932 103.474 692.625 126.061 692.625H255.754C274.584 692.625 289.438 677.888 289.438 660.194C289.438 642.486 274.584 627.749 255.754 627.749H248.473V620.468C248.488 588.139 221.402 561.562 187.5 561.562C171.771 561.625 156.581 567.306 144.672 577.581V577.567Z" fill="#EDEFF1"/>
<rect x="439" width="375" height="375" rx="72" fill="#F6812F"/>
<path fill-rule="evenodd" clip-rule="evenodd" d="M560.844 121.969C560.844 120.032 561.688 117.338 564.95 113.959C568.256 110.508 573.571 106.911 580.969 103.649C595.779 97.1397 616.968 92.8438 640.938 92.8438C664.922 92.8438 686.11 97.1397 700.891 103.649C708.318 106.911 713.619 110.493 716.925 113.945C720.187 117.338 721.031 120.032 721.031 121.969C721.031 123.906 720.187 126.6 716.925 129.978C713.619 133.429 708.304 137.026 700.906 140.288C686.096 146.798 664.907 151.094 640.938 151.094C616.953 151.094 595.765 146.798 580.984 140.288C573.557 137.026 568.256 133.444 564.95 129.993C561.688 126.6 560.844 123.906 560.844 121.969ZM539 121.969C539 112.853 543.252 105.003 549.194 98.8144C555.106 92.669 563.116 87.6449 572.188 83.6548C590.333 75.66 614.652 71 640.938 71C667.223 71 691.542 75.66 709.702 83.6548C718.76 87.6449 726.769 92.6836 732.681 98.7998C738.623 105.003 742.875 112.853 742.875 121.969V253.031C742.875 262.147 738.623 269.997 732.681 276.186C726.769 282.331 718.759 287.355 709.687 291.345C691.557 299.34 667.237 304 640.938 304C614.652 304 590.333 299.34 572.188 291.345C563.116 287.355 555.106 282.316 549.194 276.2C543.252 269.997 539 262.147 539 253.031V121.969ZM560.844 187.5V154.356C564.353 156.54 568.169 158.521 572.188 160.283C590.333 168.277 614.652 172.938 640.938 172.938C667.223 172.938 691.542 168.277 709.702 160.283C713.706 158.521 717.522 156.54 721.031 154.356V187.5C721.031 189.437 720.187 192.131 716.925 195.509C713.619 198.961 708.304 202.558 700.906 205.82C686.096 212.329 664.907 216.625 640.938 216.625C616.953 216.625 595.765 212.329 580.984 205.82C573.557 202.558 568.256 198.975 564.95 195.524C561.688 192.131 560.844 189.437 560.844 187.5ZM560.844 219.902V253.031C560.844 254.968 561.688 257.662 564.95 261.041C568.256 264.492 573.571 268.089 580.969 271.351C595.765 277.86 616.953 282.156 640.938 282.156C664.922 282.156 686.11 277.86 700.891 271.351C708.318 268.089 713.619 264.506 716.925 261.055C720.187 257.662 721.031 254.968 721.031 253.031V219.902C717.522 222.086 713.706 224.052 709.702 225.814C691.542 233.809 667.223 238.469 640.938 238.469C614.652 238.469 590.333 233.809 572.188 225.814C568.272 224.112 564.481 222.137 560.844 219.902Z" fill="#EDEFF1"/>
<rect width="375" height="375" rx="72" fill="#F6812F"/>
<path d="M299.904 197.161L254.852 256.263C252.121 258.84 248.822 260.128 244.954 260.128C241.085 260.128 237.786 258.802 235.056 256.15C232.325 253.498 230.96 250.24 230.96 246.375C230.96 242.511 232.325 239.215 235.056 236.487L272.6 187.386L235.056 138.286C232.325 135.558 230.96 132.3 230.96 128.511C230.96 124.723 232.325 121.464 235.056 118.737C237.786 116.009 241.085 114.645 244.954 114.645C248.822 114.645 252.121 116.009 254.852 118.737L299.904 177.612C302.635 180.34 304 183.598 304 187.386C304 191.175 302.635 194.433 299.904 197.161ZM187.5 289.452C187.348 289.906 187.121 290.778 186.817 292.066C186.514 293.354 186.286 294.225 186.135 294.68L185.338 297.067L184.201 299.454L182.494 301.272L180.105 302.863L177.033 303.659L172.938 304C169.297 304 165.808 302.106 162.471 298.317C159.133 294.528 157.92 290.891 158.83 287.406L187.5 85.5483C190.079 75.8494 197.36 71 209.344 71C212.681 71 214.918 72.7807 216.056 76.342C217.194 79.9033 217.232 83.654 216.17 87.5941L187.5 289.452ZM139.944 256.15C137.214 258.802 133.915 260.128 130.046 260.128C126.178 260.128 122.879 258.84 120.148 256.263L75.0957 197.161C72.3652 194.433 71 191.175 71 187.386C71 183.598 72.3652 180.34 75.0957 177.612L120.148 118.737C122.879 116.009 126.178 114.645 130.046 114.645C133.915 114.645 137.214 116.009 139.944 118.737C142.675 121.464 144.04 124.723 144.04 128.511C144.04 132.3 142.675 135.558 139.944 138.286L102.4 187.386L139.944 236.487C142.675 239.215 144.04 242.511 144.04 246.375C144.04 250.24 142.675 253.498 139.944 256.15Z" fill="#EDEFF1"/>
<rect x="220" y="219" width="375" height="375" rx="187.5" fill="#D42A59"/>
<path d="M407.5 474.458C409.413 474.459 411.307 474.836 413.074 475.569C414.841 476.302 416.447 477.375 417.799 478.728C419.152 480.082 420.224 481.688 420.955 483.456C421.687 485.223 422.063 487.118 422.062 489.031C422.062 490.944 421.684 492.838 420.952 494.605C420.219 496.372 419.146 497.978 417.792 499.33C416.439 500.682 414.833 501.755 413.065 502.486C411.298 503.218 409.403 503.594 407.49 503.593C403.627 503.592 399.922 502.056 397.191 499.323C394.46 496.59 392.927 492.884 392.928 489.021C392.929 485.157 394.465 481.453 397.198 478.722C399.931 475.991 403.636 474.457 407.5 474.458ZM407.5 309.417C422.949 309.417 437.765 315.554 448.689 326.478C459.613 337.402 465.75 352.218 465.75 367.667C465.75 388.685 458.44 399.607 439.79 415.461C421.082 431.353 417.208 438.508 417.208 455.042H397.792C397.792 431.023 405.432 419.169 427.218 400.665C441.945 388.151 446.333 381.588 446.333 367.667C446.333 346.211 428.955 328.833 407.5 328.833C386.045 328.833 368.667 346.211 368.667 367.667V377.375H349.25V367.667C349.25 352.218 355.387 337.402 366.311 326.478C377.235 315.554 392.051 309.417 407.5 309.417Z" fill="#EDEFF1"/>
</svg>
